<svg id="Capa_1" data-name="Capa 1" xmlns="http://www.w3.org/2000/svg" viewBox="0 0 156 30"><defs><style>.cls-1{fill:#E31C7F;}</style></defs><title>logo-ch-imago-bco-svg</title><path class="cls-1" d="M59.07,13.26h5.17a2,2,0,0,1,2,1.7v0a2,2,0,0,1-2,2.28H59.07V24a2.55,2.55,0,0,1-2.55,2.55h0A2.55,2.55,0,0,1,54,24V4H65.77a2,2,0,0,1,2,1.7h0a2,2,0,0,1-2,2.28h-6.7Z"/><path class="cls-1" d="M76.6,9.83a7.19,7.19,0,0,1,4.08,1.11,6.86,6.86,0,0,1,2.5,3A10.12,10.12,0,0,1,84,18.09h0a1.53,1.53,0,0,1-1.53,1.53H73.86q.72,2.77,4.18,2.77a8.49,8.49,0,0,0,2.79-.48A1.94,1.94,0,0,1,83.26,23l0,.1a2,2,0,0,1-1,2.53q-.49.2-1,.37a12.17,12.17,0,0,1-3.54.49,10,10,0,0,1-6.84-2.19,7.64,7.64,0,0,1-2.5-6.07,9.14,9.14,0,0,1,1-4.45,7.23,7.23,0,0,1,2.92-2.94A8.79,8.79,0,0,1,76.6,9.83ZM76.47,14a2.46,2.46,0,0,0-1.81.73,3.12,3.12,0,0,0-.86,1.94h5.35a3.69,3.69,0,0,0-.86-1.94A2.33,2.33,0,0,0,76.47,14Z"/><path class="cls-1" d="M91.64,26.51a14.64,14.64,0,0,1-3.17-.42,10.16,10.16,0,0,1-1.09-.31,2,2,0,0,1-1.13-2.64h0a2,2,0,0,1,2.36-1.06l.63.18a8.67,8.67,0,0,0,2.07.31,3.29,3.29,0,0,0,1.39-.28.85.85,0,0,0,.6-.77,1.06,1.06,0,0,0-.57-.82A6.23,6.23,0,0,0,91.15,20a13.2,13.2,0,0,1-3.92-2,3.74,3.74,0,0,1-1.53-3.07,4.42,4.42,0,0,1,1.76-3.7A7.75,7.75,0,0,1,92.3,9.83a12.24,12.24,0,0,1,2.89.41,9.48,9.48,0,0,1,1,.3,1.94,1.94,0,0,1,1.08,2.6h0a1.94,1.94,0,0,1-2.34,1.08,8.4,8.4,0,0,0-2.45-.41,2.38,2.38,0,0,0-1.24.29.86.86,0,0,0-.49.75q0,.52,2.06,1.24,5.45,1.89,5.45,5.29a4.56,4.56,0,0,1-1.68,3.79A7.75,7.75,0,0,1,91.64,26.51Z"/><path class="cls-1" d="M106.69,10.68h1.94a2,2,0,0,1,1.94,1.55h0a2,2,0,0,1-1.94,2.44h-1.94v5.29a2.76,2.76,0,0,0,.55,1.79,1.87,1.87,0,0,0,1.53.69,4,4,0,0,0,.67-.06,1.77,1.77,0,0,1,2,1l.23.56a1.73,1.73,0,0,1-1.08,2.31h0a7.11,7.11,0,0,1-2.12.36,7.56,7.56,0,0,1-4.93-1.57,5.4,5.4,0,0,1-1.93-4.44v-6h-.29a2,2,0,0,1-2-2h0a2,2,0,0,1,2-2h.29V8.27a1.87,1.87,0,0,1,1.59-1.85l1.35-.21a1.87,1.87,0,0,1,2.15,1.85Z"/><path class="cls-1" d="M119.74,5.33a2.7,2.7,0,0,1-.83,2,2.74,2.74,0,0,1-2,.83,2.7,2.7,0,0,1-2-.83,2.7,2.7,0,0,1-.83-2,2.73,2.73,0,0,1,.83-2,2.7,2.7,0,0,1,2-.83,2.74,2.74,0,0,1,2,.83A2.73,2.73,0,0,1,119.74,5.33Zm-.26,7.56v10.7a2.89,2.89,0,0,1-2.56,2.92h0a2.89,2.89,0,0,1-2.56-2.92V12.88a2.56,2.56,0,0,1,2.56-2.56h0A2.56,2.56,0,0,1,119.48,12.88Z"/><path class="cls-1" d="M137.06,13.58,133,24.36a3.39,3.39,0,0,1-3.16,2.15h0a3.39,3.39,0,0,1-3.16-2.17l-4-10.78a2.38,2.38,0,0,1,1.56-3.15l.15,0a2.38,2.38,0,0,1,2.92,1.51l2.65,7.71,2.7-7.68a2.38,2.38,0,0,1,2.25-1.59h0A2.38,2.38,0,0,1,137.06,13.58Z"/><path class="cls-1" d="M147.64,9.83a7.19,7.19,0,0,1,4.08,1.11,6.86,6.86,0,0,1,2.5,3,10.12,10.12,0,0,1,.83,4.18h0a1.53,1.53,0,0,1-1.53,1.53H144.9q.72,2.77,4.18,2.77a8.47,8.47,0,0,0,2.74-.46,2,2,0,0,1,2.5,1.14h0a2,2,0,0,1-1.08,2.6q-.47.19-1,.35a12.17,12.17,0,0,1-3.54.49,10,10,0,0,1-6.84-2.19,7.64,7.64,0,0,1-2.5-6.07,9.14,9.14,0,0,1,1-4.45,7.23,7.23,0,0,1,2.92-2.94A8.79,8.79,0,0,1,147.64,9.83ZM147.51,14a2.46,2.46,0,0,0-1.81.73,3.12,3.12,0,0,0-.86,1.94h5.35a3.69,3.69,0,0,0-.86-1.94A2.33,2.33,0,0,0,147.51,14Z"/><path class="cls-1" d="M24.07,11.8a2.36,2.36,0,0,1,1-.21,2.24,2.24,0,0,1,1.25.34q.85.59,1.64,1.2a6.49,6.49,0,0,0,5.54.68l1.94-.64.12,0c1.55-.55,2.4-1.5,2.4-2.48A2.18,2.18,0,0,0,37,9q-1.32-1.06-2.8-2.08T30.81,4.75A61.82,61.82,0,0,0,23.5,1.17c-2.42-1-5.8-.57-7.28.91L1.49,16.87A1.61,1.61,0,0,0,1,18a2.11,2.11,0,0,0,1.39,1.74l.06,0a4.86,4.86,0,0,0,1.06.37,6.34,6.34,0,0,0,4.05-.35l7.61-3.68a2.49,2.49,0,0,1,2.25.12l.56.38a6.56,6.56,0,0,0,5.38.56c1.37-.45,2.11-1.28,2.11-2.11a2,2,0,0,0-1-1.56l-.61-.43C23.3,12.7,23.4,12.12,24.07,11.8Z"/><path class="cls-1" d="M2.36,23.83l.06,0a6.31,6.31,0,0,0,5.11,0l7.61-3.68a2.49,2.49,0,0,1,2.25.12l.56.38a6.58,6.58,0,0,0,5.38.56c1.37-.45,2.11-1.28,2.11-2.11V18.09c0,.84-.74,1.66-2.11,2.11a6.57,6.57,0,0,1-5.38-.56l-.56-.38a2.49,2.49,0,0,0-2.25-.12L7.53,22.82a6.31,6.31,0,0,1-5.11,0l-.06,0A2.11,2.11,0,0,1,1,21v1.06A2.11,2.11,0,0,0,2.36,23.83Z"/><path class="cls-1" d="M35.44,16.19l-1.94.64A6.49,6.49,0,0,1,28,16.15l-.91-.68v1.06l.91.68a6.49,6.49,0,0,0,5.54.68l1.94-.64c1.62-.54,2.52-1.52,2.52-2.52V13.67C38,14.67,37.06,15.65,35.44,16.19Z"/><path class="cls-1" d="M25.43,22c0,.84-.74,1.66-2.11,2.11a6.57,6.57,0,0,1-5.38-.56l-.56-.38A2.49,2.49,0,0,0,15.14,23L7.53,26.68a6.31,6.31,0,0,1-5.11,0l-.06,0A2.11,2.11,0,0,1,1,24.88V27A2.11,2.11,0,0,0,2.36,28.7l.06,0a6.31,6.31,0,0,0,5.11,0l7.61-3.68a2.49,2.49,0,0,1,2.25.12l.56.38a6.57,6.57,0,0,0,5.38.56c1.37-.45,2.11-1.28,2.11-2.11Z"/><path class="cls-1" d="M38,17.53c0,1-.9,2-2.52,2.52l-1.94.64A6.49,6.49,0,0,1,28,20l-.91-.68v1.06h0v1l.91.68a6.49,6.49,0,0,0,5.54.68l1.94-.64C37.06,21.58,38,20.6,38,19.6Z"/></svg>