<svg width="245" height="47" viewBox="0 0 245 47" fill="none" xmlns="http://www.w3.org/2000/svg">
<path d="M64.4577 35.0866C62.871 35.0866 61.477 34.6786 60.2757 33.8626C59.0744 33.0466 58.1337 31.9586 57.4537 30.5986C56.7737 29.2159 56.4337 27.7086 56.4337 26.0766C56.4337 24.3539 56.785 22.8012 57.4877 21.4186C58.1904 20.0132 59.165 18.9026 60.4117 18.0866C61.6584 17.2706 63.0977 16.8626 64.7297 16.8626C66.1124 16.8626 67.325 17.1799 68.3677 17.8146C69.4104 18.4266 70.2717 19.2539 70.9517 20.2966V17.1686H74.9297V34.1346C74.9297 35.9026 74.499 37.4099 73.6377 38.6566C72.799 39.9259 71.6317 40.8892 70.1357 41.5466C68.6397 42.2266 66.9397 42.5666 65.0357 42.5666C63.0864 42.5666 61.443 42.2379 60.1057 41.5806C58.791 40.9459 57.6577 40.0392 56.7057 38.8606L59.1877 36.4466C59.8677 37.2852 60.7177 37.9426 61.7377 38.4186C62.7804 38.8946 63.8797 39.1326 65.0357 39.1326C65.9877 39.1326 66.8604 38.9512 67.6537 38.5886C68.4697 38.2486 69.127 37.7046 69.6257 36.9566C70.1244 36.2312 70.3737 35.2906 70.3737 34.1346V31.8906C69.7844 32.9106 68.9457 33.7039 67.8577 34.2706C66.7924 34.8146 65.659 35.0866 64.4577 35.0866ZM65.9877 31.4486C66.985 31.4486 67.8804 31.1539 68.6737 30.5646C69.4897 29.9752 70.0564 29.2726 70.3737 28.4566V24.2066C69.9657 23.1639 69.3197 22.3252 68.4357 21.6906C67.5744 21.0559 66.6677 20.7386 65.7157 20.7386C64.7864 20.7386 63.9704 20.9992 63.2677 21.5206C62.5877 22.0419 62.055 22.7219 61.6697 23.5606C61.2844 24.3766 61.0917 25.2606 61.0917 26.2126C61.0917 27.1872 61.307 28.0712 61.7377 28.8646C62.1684 29.6579 62.7464 30.2926 63.4717 30.7686C64.2197 31.2219 65.0584 31.4486 65.9877 31.4486ZM87.2985 35.3246C85.3719 35.3246 83.7059 34.9052 82.3005 34.0666C80.9179 33.2279 79.8412 32.1172 79.0705 30.7346C78.2999 29.3292 77.9145 27.8106 77.9145 26.1786C77.9145 24.5012 78.2885 22.9599 79.0365 21.5546C79.8072 20.1266 80.8952 18.9932 82.3005 18.1546C83.7059 17.2932 85.3832 16.8626 87.3325 16.8626C89.2819 16.8626 90.9479 17.2932 92.3305 18.1546C93.7132 18.9932 94.7672 20.1152 95.4925 21.5206C96.2405 22.9032 96.6145 24.3992 96.6145 26.0086C96.6145 26.5979 96.5805 27.1079 96.5125 27.5386H82.7425C82.8559 28.9212 83.3659 30.0092 84.2725 30.8026C85.2019 31.5959 86.2672 31.9926 87.4685 31.9926C88.3752 31.9926 89.2252 31.7772 90.0185 31.3466C90.8345 30.8932 91.3899 30.3039 91.6845 29.5786L95.5945 30.6666C94.9372 32.0266 93.8832 33.1486 92.4325 34.0326C90.9819 34.8939 89.2705 35.3246 87.2985 35.3246ZM82.6405 24.6486H91.9565C91.8205 23.3112 91.3105 22.2346 90.4265 21.4186C89.5652 20.5799 88.5112 20.1606 87.2645 20.1606C86.0405 20.1606 84.9865 20.5799 84.1025 21.4186C83.2412 22.2346 82.7539 23.3112 82.6405 24.6486ZM107.618 35.3246C105.669 35.3246 103.991 34.9052 102.586 34.0666C101.203 33.2052 100.138 32.0719 99.39 30.6666C98.642 29.2612 98.268 27.7426 98.268 26.1106C98.268 24.4559 98.642 22.9259 99.39 21.5206C100.161 20.1152 101.237 18.9932 102.62 18.1546C104.025 17.2932 105.691 16.8626 107.618 16.8626C109.545 16.8626 111.199 17.2932 112.582 18.1546C113.987 18.9932 115.064 20.1152 115.812 21.5206C116.56 22.9259 116.934 24.4559 116.934 26.1106C116.934 27.7426 116.56 29.2612 115.812 30.6666C115.064 32.0719 113.987 33.2052 112.582 34.0666C111.199 34.9052 109.545 35.3246 107.618 35.3246ZM102.96 26.1106C102.96 27.1532 103.164 28.0826 103.572 28.8986C103.98 29.6919 104.535 30.3152 105.238 30.7686C105.941 31.2219 106.734 31.4486 107.618 31.4486C108.479 31.4486 109.261 31.2219 109.964 30.7686C110.667 30.2926 111.222 29.6579 111.63 28.8646C112.061 28.0486 112.276 27.1192 112.276 26.0766C112.276 25.0566 112.061 24.1499 111.63 23.3566C111.222 22.5406 110.667 21.9059 109.964 21.4526C109.261 20.9766 108.479 20.7386 107.618 20.7386C106.734 20.7386 105.941 20.9766 105.238 21.4526C104.535 21.9059 103.98 22.5406 103.572 23.3566C103.164 24.1499 102.96 25.0679 102.96 26.1106ZM132.113 33.9986C131.207 34.3839 130.232 34.7126 129.189 34.9846C128.169 35.2339 127.161 35.3586 126.163 35.3586C125.189 35.3586 124.293 35.1999 123.477 34.8826C122.661 34.5426 122.004 33.9986 121.505 33.2506C121.029 32.4799 120.791 31.4486 120.791 30.1566V21.9626H118.581V17.1006H120.791V11.4906H127.251V17.1006H130.753V21.9626H127.251V27.8786C127.251 28.4679 127.376 28.8872 127.625 29.1366C127.875 29.3632 128.215 29.4766 128.645 29.4766C128.963 29.4766 129.325 29.4199 129.733 29.3066C130.141 29.1932 130.549 29.0572 130.957 28.8986L132.113 33.9986ZM133.944 15.6046V10.1646H140.404V15.6046H133.944ZM133.944 34.9846V17.1006H140.404V34.9846H133.944ZM152.479 35.3246C150.393 35.3246 148.614 34.9052 147.141 34.0666C145.69 33.2279 144.579 32.1172 143.809 30.7346C143.061 29.3519 142.687 27.8672 142.687 26.2806C142.687 24.5579 143.061 22.9826 143.809 21.5546C144.557 20.1039 145.656 18.9479 147.107 18.0866C148.557 17.2026 150.348 16.7606 152.479 16.7606C154.609 16.7606 156.4 17.1912 157.851 18.0526C159.301 18.9139 160.401 20.0472 161.149 21.4526C161.897 22.8579 162.271 24.3879 162.271 26.0426C162.271 26.7452 162.214 27.4026 162.101 28.0146H149.555C149.623 28.9666 149.974 29.6579 150.609 30.0886C151.243 30.4966 151.935 30.7006 152.683 30.7006C153.385 30.7006 154.043 30.5419 154.655 30.2246C155.289 29.9072 155.709 29.4652 155.913 28.8986L161.387 30.4626C160.661 31.8906 159.539 33.0579 158.021 33.9646C156.502 34.8712 154.655 35.3246 152.479 35.3246ZM149.419 24.1386H155.335C155.244 23.2772 154.927 22.5972 154.383 22.0986C153.861 21.5999 153.193 21.3506 152.377 21.3506C151.561 21.3506 150.892 21.5999 150.371 22.0986C149.849 22.5972 149.532 23.2772 149.419 24.1386ZM182.377 34.9846H175.917V24.9206C175.917 24.0366 175.713 23.4019 175.305 23.0166C174.92 22.6086 174.467 22.4046 173.945 22.4046C173.401 22.4046 172.823 22.6426 172.211 23.1186C171.599 23.5946 171.146 24.2066 170.851 24.9546V34.9846H164.391V17.1006H170.205V19.7526C170.84 18.7779 171.735 18.0412 172.891 17.5426C174.047 17.0212 175.396 16.7606 176.937 16.7606C178.161 16.7606 179.136 16.9759 179.861 17.4066C180.587 17.8372 181.131 18.3926 181.493 19.0726C181.856 19.7526 182.094 20.4666 182.207 21.2146C182.321 21.9399 182.377 22.6086 182.377 23.2206V34.9846ZM184.557 26.0086C184.557 24.2406 184.885 22.6652 185.543 21.2826C186.223 19.8772 187.152 18.7779 188.331 17.9846C189.509 17.1686 190.858 16.7606 192.377 16.7606C193.533 16.7606 194.598 17.0326 195.573 17.5766C196.547 18.0979 197.284 18.8232 197.783 19.7526V10.1646H204.243V27.8446C204.243 28.4566 204.333 28.8872 204.515 29.1366C204.696 29.3632 205.013 29.4992 205.467 29.5446V34.9846C204.356 35.2112 203.449 35.3246 202.747 35.3246C200.548 35.3246 199.279 34.4972 198.939 32.8426L198.803 32.1966C198.191 33.2846 197.363 34.0779 196.321 34.5766C195.278 35.0752 194.167 35.3246 192.989 35.3246C191.357 35.3246 189.906 34.9279 188.637 34.1346C187.367 33.3412 186.37 32.2419 185.645 30.8366C184.919 29.4312 184.557 27.8219 184.557 26.0086ZM197.817 28.0486V24.8526C197.522 24.0592 197.057 23.4246 196.423 22.9486C195.811 22.4499 195.165 22.2006 194.485 22.2006C193.555 22.2006 192.773 22.5859 192.139 23.3566C191.527 24.1272 191.221 25.0566 191.221 26.1446C191.221 27.2552 191.549 28.1619 192.207 28.8646C192.864 29.5446 193.714 29.8846 194.757 29.8846C195.958 29.8846 196.978 29.2726 197.817 28.0486ZM207.134 29.5786C207.134 28.3772 207.463 27.3232 208.12 26.4166C208.777 25.4872 209.684 24.7619 210.84 24.2406C212.019 23.7192 213.356 23.4586 214.852 23.4586C216.303 23.4586 217.504 23.6852 218.456 24.1386V23.5946C218.456 22.7559 218.207 22.1326 217.708 21.7246C217.232 21.3166 216.45 21.1126 215.362 21.1126C214.365 21.1126 213.424 21.2826 212.54 21.6226C211.679 21.9399 210.772 22.4159 209.82 23.0506L207.95 19.0386C210.307 17.5199 212.993 16.7606 216.008 16.7606C218.841 16.7606 221.029 17.4066 222.57 18.6986C224.134 19.9679 224.916 21.8606 224.916 24.3766V27.8446C224.916 28.4566 225.007 28.8872 225.188 29.1366C225.369 29.3632 225.687 29.4992 226.14 29.5446V34.9846C225.619 35.0979 225.12 35.1772 224.644 35.2226C224.191 35.2906 223.783 35.3246 223.42 35.3246C222.264 35.3246 221.38 35.1206 220.768 34.7126C220.179 34.2819 219.793 33.6586 219.612 32.8426L219.476 32.1966C217.844 34.2819 215.815 35.3246 213.39 35.3246C212.211 35.3246 211.146 35.0752 210.194 34.5766C209.242 34.0779 208.494 33.3979 207.95 32.5366C207.406 31.6526 207.134 30.6666 207.134 29.5786ZM217.606 30.0206C218.173 29.6352 218.456 29.2159 218.456 28.7626V27.4366C218.093 27.3006 217.674 27.1872 217.198 27.0966C216.745 27.0059 216.337 26.9606 215.974 26.9606C215.203 26.9606 214.546 27.1532 214.002 27.5386C213.481 27.9239 213.22 28.4112 213.22 29.0006C213.22 29.4992 213.413 29.9072 213.798 30.2246C214.206 30.5419 214.716 30.7006 215.328 30.7006C216.167 30.7006 216.926 30.4739 217.606 30.0206ZM235.647 35.3246C234.083 35.3246 232.542 35.0752 231.023 34.5766C229.527 34.0552 228.258 33.3072 227.215 32.3326L229.425 28.3546C230.536 29.0799 231.601 29.6466 232.621 30.0546C233.664 30.4626 234.605 30.6666 235.443 30.6666C236.373 30.6666 236.837 30.3946 236.837 29.8506C236.837 29.5559 236.645 29.3179 236.259 29.1366C235.897 28.9552 235.307 28.7399 234.491 28.4906C233.086 27.9919 231.907 27.5272 230.955 27.0966C230.026 26.6659 229.323 26.1446 228.847 25.5326C228.394 24.8979 228.167 24.0592 228.167 23.0166C228.167 21.1806 228.847 19.6732 230.207 18.4946C231.567 17.3159 233.449 16.7266 235.851 16.7266C237.053 16.7266 238.254 16.9192 239.455 17.3046C240.679 17.6672 241.858 18.3359 242.991 19.3106L240.543 23.2546C239.41 22.5519 238.447 22.0532 237.653 21.7586C236.883 21.4639 236.191 21.3166 235.579 21.3166C234.627 21.3166 234.151 21.6339 234.151 22.2686C234.151 22.6086 234.333 22.8692 234.695 23.0506C235.058 23.2319 235.636 23.4359 236.429 23.6626C237.971 24.1159 239.229 24.5806 240.203 25.0566C241.178 25.5099 241.892 26.0652 242.345 26.7226C242.821 27.3799 243.059 28.2412 243.059 29.3066C243.059 31.1879 242.391 32.6612 241.053 33.7266C239.739 34.7919 237.937 35.3246 235.647 35.3246Z" fill="#19BBDE"/>
<path d="M14.3011 44.0345H7.10114C4.20114 44.0345 2.00114 41.5264 2.30114 38.7173L4.40114 17.6489C4.70114 15.1407 6.70114 13.2346 9.20114 13.2346H16.3011C13.8011 13.2346 11.7011 15.1407 11.5011 17.6489L9.50114 38.8176C9.30114 41.5264 11.5011 44.0345 14.3011 44.0345Z" stroke="#19BBDE" stroke-width="4"/>
<path d="M40.401 38.8346C40.601 41.6346 38.401 44.0346 35.601 44.0346H14.3011C11.5011 44.0346 9.20105 41.5346 9.50105 38.7346L11.501 17.6346C11.701 15.1346 13.8011 13.2346 16.3011 13.2346H34.0011C36.5011 13.2346 38.6011 15.2346 38.8011 17.7346L40.401 38.8346Z" stroke="#19BBDE" stroke-width="4"/>
<path d="M29.0011 6.83457C26.1011 1.63457 18.6011 1.63457 15.7011 6.83457" stroke="#19BBDE" stroke-width="4"/>
<path d="M29.8011 44.0346H20.9011C20.5011 44.0346 20.2011 43.7346 20.2011 43.3346V36.9346C20.2011 36.5346 20.5011 36.2346 20.9011 36.2346H29.8011C30.2011 36.2346 30.5011 36.5346 30.5011 36.9346V43.3346C30.5011 43.7346 30.1011 44.0346 29.8011 44.0346Z" stroke="#19BBDE" stroke-width="4"/>
</svg>
